PathFileType	4	(X/Y/Z)	/Users/itak/Documents/Research/Walk-IL/dataset/trc/00094_00006.trc
DataRate	CameraRate	NumFrames	NumMarkers	Units	OrigDataRate	OrigDataStartFrame	OrigNumFrames
100.000000	100.000000	4	53	mm	100.000000	262	525
Frame#	Time	RPSI			LPSI			L3			STRN			T10			C7			CLAV			RBAK			LBAK			LSHO			LUPA			LAEL			LAOL			LWTS			LWPS			LFRA			LIFD			LHPS			LHTS			RSHO			RUPA			RAEL			RAOL			RWTS			RWPS			RFRA			RIFD			RHTS			RHPS			RBHD			LFHD			RFHD			LBHD			LHIP			RHIP			RASI			LASI			LKNE			LTHI			LANK			LTIP			LTOE			LMT1			LMT5			LHEE			RKNE			RTHI			RANK			RTIP			RTOE			RMT1			RMT5			RHEE			
		X1	Y1	Z1	X2	Y2	Z2	X3	Y3	Z3	X4	Y4	Z4	X5	Y5	Z5	X6	Y6	Z6	X7	Y7	Z7	X8	Y8	Z8	X9	Y9	Z9	X10	Y10	Z10	X11	Y11	Z11	X12	Y12	Z12	X13	Y13	Z13	X14	Y14	Z14	X15	Y15	Z15	X16	Y16	Z16	X17	Y17	Z17	X18	Y18	Z18	X19	Y19	Z19	X20	Y20	Z20	X21	Y21	Z21	X22	Y22	Z22	X23	Y23	Z23	X24	Y24	Z24	X25	Y25	Z25	X26	Y26	Z26	X27	Y27	Z27	X28	Y28	Z28	X29	Y29	Z29	X30	Y30	Z30	X31	Y31	Z31	X32	Y32	Z32	X33	Y33	Z33	X34	Y34	Z34	X35	Y35	Z35	X36	Y36	Z36	X37	Y37	Z37	X38	Y38	Z38	X39	Y39	Z39	X40	Y40	Z40	X41	Y41	Z41	X42	Y42	Z42	X43	Y43	Z43	X44	Y44	Z44	X45	Y45	Z45	X46	Y46	Z46	X47	Y47	Z47	X48	Y48	Z48	X49	Y49	Z49	X50	Y50	Z50	X51	Y51	Z51	X52	Y52	Z52	X53	Y53	Z53	

263	2.62	-659.8414306640625	1012.793701171875	222.6728210449219	-575.0023803710938	994.5890502929688	68.44563293457031	-616.9771118164062	1063.17919921875	145.2380065917969	-391.4271850585938	1253.5732421875	260.363037109375	-630.02978515625	1196.49365234375	140.5430145263672	-569.9939575195312	1460.764282226562	165.8780059814453	-413.2281188964844	1368.983032226562	244.7493591308594	-666.2848510742188	1326.60400390625	206.2130889892578	-547.9426879882812	1422.405639648438	66.39280700683594	-424.1866149902344	1421.823974609375	43.05904006958008	-421.3711242675781	1295.953491210938	-39.67916107177734	-419.9005737304688	1082.832397460938	-61.95691299438477	-507.9499816894531	1072.883178710938	-1.900471925735474	-385.1836547851562	829.2340698242188	3.39664626121521	-420.4462280273438	831.1738891601562	-72.95839691162109	-410.9489440917969	972.8118286132812	-72.31207275390625	-406.9086608886719	643.7162475585938	6.013870239257812	-401.29296875	746.6154174804688	-67.770263671875	-372.8255615234375	745.0201416015625	-1.98040759563446	-590.611328125	1423.168701171875	352.6463928222656	-629.2241821289062	1352.509643554688	406.0062255859375	-662.9925537109375	1085.013305664062	418.9588623046875	-609.7215576171875	1065.393798828125	336.7920532226562	-501.1028747558594	844.88330078125	437.1258850097656	-582.6475219726562	822.0816040039062	456.0037841796875	-649.4593505859375	1004.747985839844	429.8261108398438	-472.1620483398438	660.972412109375	419.1943054199219	-468.9172058105469	746.7637939453125	446.7573547363281	-542.4232788085938	736.4606323242188	474.0699768066406	-564.209228515625	1616.820068359375	198.9305114746094	-369.3868103027344	1677.570678710938	284.9006958007812	-480.3771667480469	1659.16943359375	342.0889587402344	-449.4298095703125	1643.035278320312	128.9462890625	-435.773193359375	934.56787109375	48.30300521850586	-647.69970703125	943.0455932617188	323.0715942382812	-530.4888305664062	952.1336059570312	372.1886291503906	-373.71142578125	949.8592529296875	153.6663055419922	-287.5001525878906	517.673095703125	226.5169525146484	-323.6893005371094	633.49560546875	141.1152191162109	-230.1148986816406	45.925537109375	224.7493743896484	-252.9253540039062	273.8196716308594	214.0865020751953	-111.3258743286133	98.08050537109375	379.0208129882812	-180.1253967285156	82.40496826171875	378.8125305175781	-136.5330352783203	57.7594108581543	278.5049743652344	-321.0560913085938	35.82463836669922	236.0628204345703	-603.1983032226562	492.7328491210938	274.0822143554688	-589.1332397460938	754.4879760742188	347.552001953125	-787.9466552734375	61.46342086791992	127.184211730957	-644.5194091796875	373.8450012207031	242.1473693847656	-573.14501953125	39.78477478027344	150.5352935791016	-619.5726928710938	47.49086761474609	98.44511413574219	-676.2698974609375	47.44865798950195	179.5304718017578	-815.9285278320312	79.36764526367188	60.72573089599609	
264	2.63	-651.326171875	1012.914306640625	225.8050231933594	-565.6287841796875	995.1118774414062	71.93990325927734	-607.9254760742188	1062.93310546875	148.4451599121094	-383.6127014160156	1254.04248046875	264.8502502441406	-621.1034545898438	1196.539794921875	142.9350280761719	-561.6624145507812	1460.9365234375	168.4846038818359	-405.5384521484375	1369.371826171875	248.9598236083984	-658.09521484375	1326.643798828125	208.0630493164062	-538.58251953125	1422.474853515625	69.173095703125	-414.5976867675781	1422.001586914062	47.07059860229492	-410.3331604003906	1295.791381835938	-35.30239868164062	-407.7362670898438	1082.4619140625	-56.41588592529297	-496.7620849609375	1072.54541015625	2.071157455444336	-373.8843994140625	829.0696411132812	10.31895923614502	-407.6746520996094	830.8267211914062	-66.668701171875	-398.3890991210938	972.42431640625	-66.24436187744141	-395.3492431640625	643.55224609375	12.85764026641846	-388.4903869628906	746.341552734375	-60.99215698242188	-361.3438415527344	744.8187255859375	5.326597213745117	-583.9918823242188	1423.338500976562	355.1467590332031	-623.2227783203125	1352.739013671875	408.0120239257812	-658.525390625	1085.5458984375	420.1409606933594	-603.9607543945312	1065.670532226562	338.8755187988281	-498.7203674316406	844.2454223632812	440.2364807128906	-580.725341796875	822.0394287109375	457.8908996582031	-645.6734008789062	1005.221618652344	431.1095275878906	-471.0378723144531	660.071533203125	422.5288696289062	-467.4582824707031	745.8876342773438	450.2073974609375	-541.327880859375	736.1198120117188	476.4939575195312	-556.4893798828125	1617.040893554688	201.8332214355469	-362.3856811523438	1678.109375	289.258056640625	-473.7471618652344	1659.54052734375	345.5995483398438	-441.2249755859375	1643.456787109375	132.7122650146484	-426.2494506835938	934.98583984375	52.92570495605469	-639.814697265625	943.0833129882812	326.2496948242188	-522.6468505859375	952.2125244140625	376.0834350585938	-364.7673034667969	950.3313598632812	158.5254364013672	-281.1626586914062	517.4468383789062	232.4680633544922	-316.2387084960938	633.7495727539062	147.2764739990234	-229.1506500244141	45.35146713256836	226.0986175537109	-248.7809906005859	272.964599609375	218.4675750732422	-109.9126510620117	91.94324493408203	382.2691040039062	-179.0552062988281	77.48665618896484	381.3694763183594	-135.7256164550781	54.53336334228516	280.6746215820312	-320.2766418457031	36.68574142456055	236.9008178710938	-595.0535888671875	492.5625610351562	277.5873107910156	-581.4177856445312	754.4693603515625	350.8408813476562	-786.9558715820312	64.93836212158203	127.9958801269531	-638.0810546875	374.0850830078125	245.3796997070312	-573.185791015625	39.79053497314453	150.4330596923828	-619.1489868164062	47.94536972045898	98.82057189941406	-675.6153564453125	48.01116561889648	180.0970764160156	-814.5387573242188	84.2696533203125	61.73760223388672	
265	2.64	-642.7520141601562	1013.272644042969	229.1004180908203	-556.3025512695312	995.9362182617188	75.55689239501953	-598.8319702148438	1062.901611328125	151.7821807861328	-375.7442016601562	1254.786376953125	269.3456115722656	-612.1345825195312	1196.815795898438	145.3867797851562	-553.2947998046875	1461.3291015625	171.0736541748047	-397.8143920898438	1370.035522460938	253.1622924804688	-649.8391723632812	1326.9150390625	209.9172973632812	-529.1740112304688	1422.770874023438	71.94752502441406	-404.9711303710938	1422.448364257812	51.09000778198242	-399.1937866210938	1295.901733398438	-30.85117530822754	-395.4025573730469	1082.344970703125	-50.70935821533203	-485.4109802246094	1072.45947265625	6.139537334442139	-362.3945617675781	829.2112426757812	17.47847366333008	-394.6668090820312	830.7520751953125	-60.13085556030273	-385.6467895507812	972.3116455078125	-59.97489547729492	-383.5631103515625	643.6766967773438	19.98552513122559	-375.4421691894531	746.3441772460938	-53.93027877807617	-349.6557006835938	744.9108276367188	12.91195106506348	-577.3145751953125	1423.790893554688	357.62255859375	-617.1732177734375	1353.25537109375	409.9711608886719	-654.0547485351562	1086.41015625	421.1927795410156	-598.1509399414062	1066.25537109375	340.8950805664062	-496.4896850585938	843.8477172851562	443.3032836914062	-579.0193481445312	822.31298828125	459.6641540527344	-641.9451293945312	1006.032592773438	432.2535400390625	-470.254638671875	659.3971557617188	425.8584289550781	-466.2738342285156	745.2326049804688	453.6471557617188	-540.5274658203125	736.0601196289062	478.8373718261719	-548.7299194335938	1617.543334960938	204.7215728759766	-355.37255859375	1678.866821289062	293.6817932128906	-467.1204833984375	1660.121337890625	349.1286010742188	-432.9559631347656	1644.171142578125	136.5134735107422	-416.6954956054688	935.7194213867188	57.62349319458008	-631.8693237304688	943.31640625	329.5726318359375	-514.722900390625	952.5238647460938	380.0368347167969	-355.8082580566406	951.0616455078125	163.4399566650391	-274.8598327636719	517.4591064453125	238.1934509277344	-308.7749633789062	634.2459716796875	153.1773529052734	-228.0969848632812	44.90295791625977	227.2405395507812	-244.4373168945312	272.3631591796875	222.6617889404297	-108.3595886230469	86.12301635742188	385.0770874023438	-177.8366394042969	72.97013092041016	383.56005859375	-134.8421936035156	51.52786636352539	282.5062561035156	-319.3761596679688	37.74377822875977	237.6157073974609	-586.4534301757812	492.4764099121094	281.4834289550781	-573.463134765625	754.6212158203125	354.3155212402344	-785.7063598632812	68.82749938964844	128.9676208496094	-631.2861938476562	374.4920959472656	248.9977722167969	-573.2620849609375	39.80539321899414	150.3206176757812	-618.6661376953125	48.47904586791992	99.23001098632812	-674.8551635742188	48.61377334594727	180.7664947509766	-812.7601928710938	89.73899078369141	62.95775604248047	
266	2.65	-634.1434326171875	1013.873901367188	232.5386505126953	-547.0487670898438	997.031982421875	79.28887176513672	-589.7294921875	1063.094116210938	155.2416229248047	-367.8410949707031	1255.790893554688	273.8599853515625	-603.1522216796875	1197.30859375	147.9151916503906	-544.8955078125	1461.927490234375	173.6480865478516	-390.0696105957031	1370.961547851562	257.3641967773438	-641.529052734375	1327.412841796875	211.7810974121094	-519.7227172851562	1423.2802734375	74.72222900390625	-395.3079223632812	1423.163696289062	55.13058853149414	-387.9620361328125	1296.299682617188	-26.32325172424316	-382.9216918945312	1082.494140625	-44.85360717773438	-473.9220886230469	1072.641967773438	10.29761791229248	-350.7251892089844	829.6828002929688	24.87666511535645	-381.4385070800781	830.9656982421875	-53.34554290771484	-372.7409973144531	972.4939575195312	-53.51088714599609	-371.582763671875	644.1094970703125	27.41207695007324	-362.163330078125	746.6364135742188	-46.57826614379883	-337.7552490234375	745.33740234375	20.78536224365234	-570.5899047851562	1424.534057617188	360.0713500976562	-611.08447265625	1354.073120117188	411.8900756835938	-649.5791625976562	1087.620849609375	422.1178894042969	-592.3255004882812	1067.174682617188	342.8330993652344	-494.4143676757812	843.7014770507812	446.3106994628906	-577.5135498046875	822.92333984375	461.318115234375	-638.2720947265625	1007.19775390625	433.2574768066406	-469.7847900390625	658.9818115234375	429.1549072265625	-465.3626098632812	744.8165893554688	457.0619201660156	-540.0155639648438	736.3058471679688	481.0851135253906	-540.9442749023438	1618.315673828125	207.6024017333984	-348.3594055175781	1679.814697265625	298.1579284667969	-460.5006408691406	1660.896240234375	352.6767578125	-424.641845703125	1645.155395507812	140.3456573486328	-407.1414794921875	936.7267456054688	62.37262344360352	-623.8983764648438	943.7533569335938	333.0240173339844	-506.7695922851562	953.0645751953125	384.0255432128906	-346.8583984375	952.0111694335938	168.3928375244141	-268.5443115234375	517.648681640625	243.6231536865234	-301.2669372558594	634.9668579101562	158.8126678466797	-226.9785308837891	44.50591278076172	228.174560546875	-239.9510955810547	271.9299621582031	226.5661010742188	-106.7291717529297	80.65657806396484	387.4094848632812	-176.5257568359375	68.88606262207031	385.3644104003906	-133.9016418457031	48.69227600097656	283.9773864746094	-318.3813781738281	38.88577270507812	238.218994140625	-577.3606567382812	492.4630432128906	285.883056640625	-565.2700805664062	754.9525146484375	357.9929504394531	-784.1362915039062	73.147705078125	130.0802764892578	-624.1157836914062	375.0765686035156	253.0799865722656	-573.3740844726562	39.82217407226562	150.2005767822266	-618.1002197265625	49.10735702514648	99.67941284179688	-673.9636840820312	49.23500823974609	181.5113525390625	-810.4724731445312	95.82192993164062	64.38319396972656	
